HIERARCHY
ROOT hip
{
  OFFSET 4.47 85.1295 159.332
  CHANNELS 6 Xposition Yposition Zposition Zrotation Xrotation Yrotation
  JOINT abdomen
  {
    OFFSET 0 20.6881 -0.73152
    CHANNELS 3 Zrotation Xrotation Yrotation
    JOINT chest
    {
      OFFSET 0 11.7043 -0.48768
      CHANNELS 3 Zrotation Xrotation Yrotation
      JOINT neck
      {
        OFFSET 0 22.1894 -2.19456
        CHANNELS 3 Zrotation Xrotation Yrotation
        JOINT head
        {
          OFFSET -0.24384 7.07133 1.2192
          CHANNELS 3 Zrotation Xrotation Yrotation
          JOINT leftEye
          {
            OFFSET 4.14528 8.04674 8.04672
            CHANNELS 3 Zrotation Xrotation Yrotation
            End Site
            {
              OFFSET 1 0 0
            }
          }
          JOINT rightEye
          {
            OFFSET -3.6576 8.04674 8.04672
            CHANNELS 3 Zrotation Xrotation Yrotation
            End Site
            {
              OFFSET 1 0 0
            }
          }
        }
      }
      JOINT rCollar
      {
        OFFSET -2.68224 19.2634 -4.8768
        CHANNELS 3 Zrotation Xrotation Yrotation
        JOINT rShldr
        {
          OFFSET -8.77824 -1.95073 1.46304
          CHANNELS 3 Zrotation Xrotation Yrotation
          JOINT rForeArm
          {
            OFFSET -28.1742 -1.7115 0.48768
            CHANNELS 3 Zrotation Xrotation Yrotation
            JOINT rHand
            {
              OFFSET -22.5879 0.773209 7.07136
              CHANNELS 3 Zrotation Xrotation Yrotation
              JOINT rThumb1
              {
                OFFSET -1.2192 -0.487915 3.41376
                CHANNELS 3 Zrotation Xrotation Yrotation
                JOINT rThumb2
                {
                  OFFSET -3.37035 -0.52449 3.41376
                  CHANNELS 3 Zrotation Xrotation Yrotation
                  End Site
                  {
                    OFFSET -1.78271 -1.18214 1.43049
                  }
                }
              }
              JOINT rIndex1
              {
                OFFSET -7.75947 0.938293 5.60832
                CHANNELS 3 Zrotation Xrotation Yrotation
                JOINT rIndex2
                {
                  OFFSET -2.54057 -0.884171 1.56538
                  CHANNELS 3 Zrotation Xrotation Yrotation
                  End Site
                  {
                    OFFSET -1.62519 -0.234802 1.16502
                  }
                }
              }
              JOINT rMid1
              {
                OFFSET -8.24714 1.18213 3.41376
                CHANNELS 3 Zrotation Xrotation Yrotation
                JOINT rMid2
                {
                  OFFSET -3.10165 -0.590103 1.0647
                  CHANNELS 3 Zrotation Xrotation Yrotation
                  End Site
                  {
                    OFFSET -2.48547 -0.328903 0.83742
                  }
                }
              }
              JOINT rRing1
              {
                OFFSET -8.82822 0.546677 1.51678
                CHANNELS 3 Zrotation Xrotation Yrotation
                JOINT rRing2
                {
                  OFFSET -2.60934 -0.819778 -0.0198488
                  CHANNELS 3 Zrotation Xrotation Yrotation
                  End Site
                  {
                    OFFSET -2.33842 -0.294052 0.168128
                  }
                }
              }
              JOINT rPinky1
              {
                OFFSET -8.27202 -0.0477905 -0.4584
                CHANNELS 3 Zrotation Xrotation Yrotation
                JOINT rPinky2
                {
                  OFFSET -1.82734 -0.647385 -0.700984
                  CHANNELS 3 Zrotation Xrotation Yrotation
                  End Site
                  {
                    OFFSET -1.69225 -0.51767 -0.607171
                  }
                }
              }
            }
          }
        }
      }
      JOINT lCollar
      {
        OFFSET 2.68224 19.2634 -4.8768
        CHANNELS 3 Zrotation Xrotation Yrotation
        JOINT lShldr
        {
          OFFSET 8.77824 -1.95073 1.46304
          CHANNELS 3 Zrotation Xrotation Yrotation
          JOINT lForeArm
          {
            OFFSET 28.1742 -1.7115 0.48768
            CHANNELS 3 Zrotation Xrotation Yrotation
            JOINT lHand
            {
              OFFSET 22.5879 0.773209 7.07136
              CHANNELS 3 Zrotation Xrotation Yrotation
              JOINT lThumb1
              {
                OFFSET 1.2192 -0.487915 3.41376
                CHANNELS 3 Zrotation Xrotation Yrotation
                JOINT lThumb2
                {
                  OFFSET 3.37035 -0.52449 3.41376
                  CHANNELS 3 Zrotation Xrotation Yrotation
                  End Site
                  {
                    OFFSET 1.78271 -1.18214 1.43049
                  }
                }
              }
              JOINT lIndex1
              {
                OFFSET 7.75947 0.938293 5.60832
                CHANNELS 3 Zrotation Xrotation Yrotation
                JOINT lIndex2
                {
                  OFFSET 2.54057 -0.884171 1.56538
                  CHANNELS 3 Zrotation Xrotation Yrotation
                  End Site
                  {
                    OFFSET 1.62519 -0.234802 1.16502
                  }
                }
              }
              JOINT lMid1
              {
                OFFSET 8.24714 1.18213 3.41376
                CHANNELS 3 Zrotation Xrotation Yrotation
                JOINT lMid2
                {
                  OFFSET 3.10165 -0.590103 1.0647
                  CHANNELS 3 Zrotation Xrotation Yrotation
                  End Site
                  {
                    OFFSET 2.48547 -0.328903 0.83742
                  }
                }
              }
              JOINT lRing1
              {
                OFFSET 8.82822 0.546677 1.51678
                CHANNELS 3 Zrotation Xrotation Yrotation
                JOINT lRing2
                {
                  OFFSET 2.60934 -0.819778 -0.0198488
                  CHANNELS 3 Zrotation Xrotation Yrotation
                  End Site
                  {
                    OFFSET 2.33842 -0.294052 0.168128
                  }
                }
              }
              JOINT lPinky1
              {
                OFFSET 8.27202 -0.0477905 -0.4584
                CHANNELS 3 Zrotation Xrotation Yrotation
                JOINT lPinky2
                {
                  OFFSET 1.82734 -0.647385 -0.700984
                  CHANNELS 3 Zrotation Xrotation Yrotation
                  End Site
                  {
                    OFFSET 1.69225 -0.51767 -0.607171
                  }
                }
              }
            }
          }
        }
      }
    }
  }
  JOINT rButtock
  {
    OFFSET -8.77824 4.35084 1.2192
    CHANNELS 3 Zrotation Xrotation Yrotation
    JOINT rThigh
    {
      OFFSET 0 -1.70687 -2.19456
      CHANNELS 3 Zrotation Xrotation Yrotation
      JOINT rShin
      {
        OFFSET 0 -36.8199 0.73152
        CHANNELS 3 Zrotation Xrotation Yrotation
        JOINT rFoot
        {
          OFFSET 0.73152 -45.1104 -5.12064
          CHANNELS 3 Zrotation Xrotation Yrotation
          End Site
          {
            OFFSET -1.1221 -3.69964 12.103
          }
        }
      }
    }
  }
  JOINT lButtock
  {
    OFFSET 8.77824 4.35084 1.2192
    CHANNELS 3 Zrotation Xrotation Yrotation
    JOINT lThigh
    {
      OFFSET 0 -1.70687 -2.19456
      CHANNELS 3 Zrotation Xrotation Yrotation
      JOINT lShin
      {
        OFFSET 0 -36.8199 0.73152
        CHANNELS 3 Zrotation Xrotation Yrotation
        JOINT lFoot
        {
          OFFSET -0.73152 -45.1104 -5.12064
          CHANNELS 3 Zrotation Xrotation Yrotation
          End Site
          {
            OFFSET 1.1221 -3.69964 12.103
          }
        }
      }
    }
  }
}
MOTION
Frames:	4
Frame Time:	0.00833333
40.9354 83.9909 -86.2816 -149.021 75.7935 107.975 -9.61853 10.0806 -3.39286 -4.76755 -6.26386 -1.51321 6.14678 15.6007 -2.5683 -30.431 -77.4623 -32.941 -0 0 0 -0 0 0 -1.70197e-013 1.47514e-012 -9.21642e-013 -0.177646 -61.4616 61.0163 -20.8511 -14.1213 40.7885 -0.089465 -8.42549 -1.19243 1.51289e-009 -4.1438e-009 -4.48842e-009 2.64311e-009 -7.13027e-009 -7.77416e-009 1.51288e-009 -4.1438e-009 -4.48844e-009 7.73091 5.47488 0.417314 1.51289e-009 -4.1438e-009 -4.48842e-009 2.90554 0.965183 0.102902 1.51289e-009 -4.1438e-009 -4.48842e-009 10.2786 0.731801 0.0259123 1.51288e-009 -4.1438e-009 -4.48841e-009 2.22167 -0.733487 -0.20892 -1.70353e-013 1.47515e-012 -9.21928e-013 -24.1792 -42.5133 -67.7718 14.5939 -7.48258 -26.6776 0.689051 -22.6091 3.36075 6.82006e-010 6.70097e-009 -2.63374e-010 1.20502e-009 1.16364e-008 -4.56142e-010 6.81996e-010 6.70097e-009 -2.6337e-010 -7.73091 5.47488 -0.417314 6.82008e-010 6.70096e-009 -2.63376e-010 -2.90554 0.965183 -0.102902 6.81998e-010 6.70097e-009 -2.63376e-010 -10.2786 0.731801 -0.0259123 6.82011e-010 6.70097e-009 -2.63387e-010 -2.22167 -0.733487 0.20892 -2.03217e-016 0 -3.88251e-019 -5.55321 -1.81991 -0.407413 0.00763988 13.9447 0.447705 12.8259 22.7373 -32.3973 2.03217e-016 0 3.88251e-019 118.573 -52.0484 82.0262 0.468333 46.4486 -1.0218 -4.96017 -22.28 -9.86406 
40.6552 85.1557 -84.2168 -152.412 73.3914 110.394 -9.12792 9.31676 -3.6203 -4.82241 -6.0274 -1.52904 5.38097 15.1217 -2.98505 -29.9695 -77.7015 -33.9249 -0 0 0 -0 0 0 -1.33539e-013 1.69842e-012 -1.31426e-012 0.0020743 -61.8276 61.7381 -20.8685 -14.1448 40.8324 -0.051978 -6.49242 -0.916414 2.48313e-009 -1.04386e-009 -5.62404e-009 4.34025e-009 -1.73085e-009 -9.73224e-009 2.48313e-009 -1.04385e-009 -5.62406e-009 7.73091 5.47488 0.417314 2.48313e-009 -1.04386e-009 -5.62404e-009 2.90554 0.965183 0.102902 2.48314e-009 -1.04386e-009 -5.62404e-009 10.2786 0.731801 0.0259123 2.48313e-009 -1.04386e-009 -5.62403e-009 2.22167 -0.733487 -0.20892 -1.33735e-013 1.69842e-012 -1.31456e-012 -23.29 -42.7163 -66.6276 15.2856 -8.04001 -28.1785 0.64813 -22.2466 3.29558 9.90275e-010 7.66319e-009 2.77475e-010 1.73367e-009 1.33002e-008 4.82233e-010 9.90269e-010 7.66319e-009 2.77478e-010 -7.73091 5.47488 -0.417314 9.90277e-010 7.66319e-009 2.77472e-010 -2.90554 0.965183 -0.102902 9.90266e-010 7.66319e-009 2.77473e-010 -10.2786 0.731801 -0.0259123 9.90279e-010 7.66319e-009 2.77462e-010 -2.22167 -0.733487 0.20892 -2.03217e-016 0 -3.88251e-019 -6.12442 -0.509503 -0.0972685 -0.00326445 14.0954 0.372324 13.1059 22.7232 -33.1264 2.03217e-016 0 3.88251e-019 116.744 -51.1456 76.7918 0.353832 42.0888 -0.898456 -3.82627 -22.8959 -7.20385 
40.3415 86.4444 -82.1206 -155.25 70.9158 112.315 -8.73044 8.40807 -3.98712 -4.77195 -5.81365 -1.57922 3.699 14.6694 -3.39398 -24.4401 -77.695 -30.4438 -0 0 0 -0 0 0 1.51498e-013 1.00408e-012 -9.36691e-013 0.691352 -62.1987 62.9366 -20.8512 -14.1215 40.7887 -0.0157284 -4.29261 -0.604539 2.21447e-009 2.66421e-009 -3.06594e-009 3.87416e-009 4.68367e-009 -5.29824e-009 2.21447e-009 2.66422e-009 -3.06596e-009 7.73091 5.47488 0.417314 2.21447e-009 2.66422e-009 -3.06594e-009 2.90554 0.965183 0.102902 2.21447e-009 2.66421e-009 -3.06594e-009 10.2786 0.731801 0.0259123 2.21447e-009 2.66421e-009 -3.06593e-009 2.22167 -0.733487 -0.20892 1.5129e-013 1.00408e-012 -9.36994e-013 -24.8393 -43.0692 -67.5241 15.652 -8.34018 -28.9956 0.477087 -19.8356 2.895 1.00449e-009 3.53577e-009 3.45959e-010 1.74711e-009 6.14485e-009 6.06562e-010 1.00448e-009 3.53578e-009 3.45964e-010 -7.73091 5.47488 -0.417314 1.00449e-009 3.53577e-009 3.45956e-010 -2.90554 0.965183 -0.102902 1.00448e-009 3.53577e-009 3.45957e-010 -10.2786 0.731801 -0.0259123 1.00449e-009 3.53577e-009 3.45947e-010 -2.22167 -0.733487 0.20892 -2.03217e-016 0 -3.88251e-019 -6.61682 0.623278 0.205216 -0.0174287 14.3084 0.275992 13.1114 22.0634 -34.1804 2.03217e-016 0 3.88251e-019 113.908 -49.8831 67.2826 0.25437 36.415 -0.802636 -2.57802 -26.3394 -3.8769 
40.0666 87.7685 -79.9652 -157.616 68.3698 113.797 -8.41042 7.41389 -4.44455 -4.64833 -5.61169 -1.65297 1.35444 14.2082 -3.81253 -15.4451 -77.3904 -23.9744 -0 0 0 -0 0 0 6.05219e-013 -2.86897e-013 -8.86114e-014 1.77354 -62.6376 64.4535 -20.8068 -14.0615 40.6762 0.00749131 -1.87488 -0.263612 1.25266e-009 7.38266e-009 1.8041e-009 2.19822e-009 1.28276e-008 3.13794e-009 1.25266e-009 7.38267e-009 1.80408e-009 7.73091 5.47488 0.417314 1.25266e-009 7.38266e-009 1.80409e-009 2.90554 0.965183 0.102902 1.25266e-009 7.38266e-009 1.80409e-009 10.2786 0.731801 0.0259123 1.25265e-009 7.38266e-009 1.8041e-009 2.22167 -0.733487 -0.20892 6.05015e-013 -2.86897e-013 -8.89158e-014 -28.2235 -43.5729 -69.9709 15.8148 -8.48585 -29.3433 0.282096 -15.9562 2.28777 8.52757e-010 -3.89462e-009 1.75946e-010 1.46827e-009 -6.73466e-009 3.20657e-010 8.52747e-010 -3.89462e-009 1.75953e-010 -7.73091 5.47488 -0.417314 8.52758e-010 -3.89462e-009 1.75942e-010 -2.90554 0.965183 -0.102902 8.52749e-010 -3.89462e-009 1.75942e-010 -10.2786 0.731801 -0.0259123 8.52761e-010 -3.89462e-009 1.75933e-010 -2.22167 -0.733487 0.20892 -2.03217e-016 0 -3.88251e-019 -7.03858 1.61913 0.491765 -0.0334676 14.5689 0.163717 12.8835 20.9378 -35.4851 2.03217e-016 0 3.88251e-019 111.355 -46.7959 55.4912 0.169597 29.711 -0.730179 -0.576828 -31.6354 0.257326 
